<svg width="13" height="22" viewBox="0 0 13 22" fill="none" xmlns="http://www.w3.org/2000/svg">
<path fill-rule="evenodd" clip-rule="evenodd" d="M11.9425 0.724C12.1925 0.974037 12.3329 1.31311 12.3329 1.66667C12.3329 2.02022 12.1925 2.3593 11.9425 2.60933L3.55188 11L11.9425 19.3907C12.1854 19.6421 12.3198 19.9789 12.3168 20.3285C12.3137 20.6781 12.1735 21.0125 11.9263 21.2598C11.6791 21.507 11.3447 21.6472 10.9951 21.6502C10.6455 21.6533 10.3087 21.5189 10.0572 21.276L0.723878 11.9427C0.473917 11.6926 0.333496 11.3536 0.333496 11C0.333496 10.6464 0.473917 10.3074 0.723878 10.0573L10.0572 0.724C10.3072 0.474039 10.6463 0.333618 10.9999 0.333618C11.3534 0.333618 11.6925 0.474039 11.9425 0.724Z" fill="#515151"/>
</svg>
